<svg xmlns="http://www.w3.org/2000/svg" xmlns:xlink="http://www.w3.org/1999/xlink" width="2379" zoomAndPan="magnify" viewBox="0 0 1784.88 1784.99993" height="2379" preserveAspectRatio="xMidYMid meet" version="1.0"><path fill="#e14761" d="M 878.550781 1077.5 L 878.550781 435.535156 L 911.230469 425.320312 C 938.460938 416.8125 1736.839844 171.289062 1750.671875 167.171875 C 1754.847656 165.929688 1755.15625 169.703125 1755.15625 221.824219 L 1757.71875 313.699219 L 1418.101562 436.660156 L 1098.984375 549.371094 L 1096.421875 675.882812 C 1093.726562 808.863281 1097.082031 843.140625 1099.625 842.101562 C 1101.386719 841.382812 1243.546875 777.699219 1415.535156 700.585938 C 1587.527344 623.472656 1734.320312 557.671875 1741.75 554.355469 L 1755.253906 548.332031 L 1754.566406 604.597656 L 1753.875 724.9375 L 1459.109375 873.058594 L 1097.703125 1049.375 L 1097.046875 1208.84375 C 1096.539062 1333.203125 1097.023438 1365.75 1097.804688 1365.75 C 1098.582031 1365.75 1238.660156 1291.992188 1418.496094 1179.917969 C 1598.328125 1067.84375 1753.605469 976.144531 1754.15625 976.144531 C 1754.707031 976.144531 1755.160156 1052.253906 1755.160156 1082.617188 L 1755.160156 1137.828125 L 1317.980469 1428.648438 C 1077.53125 1588.597656 880.292969 1719.46875 879.675781 1719.46875 C 879.058594 1719.46875 878.550781 1430.582031 878.550781 1077.5 Z M 878.550781 1077.5 " fill-opacity="1" fill-rule="nonzero"/><path fill="#e14761" d="M 517.367188 1530 C 323.71875 1426.542969 143.058594 1328.941406 141.789062 1327.671875 C 140.492188 1326.375 143.152344 1297.503906 142.808594 1255.050781 L 142.164062 1175.46875 L 297.871094 1252.480469 C 605.390625 1404.578125 669.132812 1433.695312 670.140625 1432.691406 C 670.722656 1432.109375 669.960938 1197.1875 668.445312 910.648438 C 666.933594 624.109375 666.128906 389.230469 666.660156 388.699219 C 667.191406 388.167969 713.394531 398.746094 769.339844 412.199219 C 825.28125 425.65625 871.558594 436.667969 872.175781 436.667969 C 872.792969 436.667969 873.296875 725.019531 873.296875 1077.453125 C 873.296875 1429.886719 872.433594 1718.210938 871.375 1718.171875 C 870.316406 1718.136719 711.015625 1633.457031 517.367188 1530 Z M 517.367188 1530 " fill-opacity="1" fill-rule="nonzero"/><path fill="#e14761" d="M 77.519531 1286.601562 L 23.5 1256.585938 L 23.425781 744.777344 L 23.351562 224.640625 L 70.578125 236.554688 C 96.554688 243.105469 240.042969 279.679688 389.40625 317.816406 L 660.859375 387.128906 L 660.832031 459.304688 L 660.804688 531.316406 L 654.964844 529.386719 C 651.753906 528.324219 536 494.523438 397.675781 454.253906 C 259.292969 413.964844 143.992188 380.328125 141.507812 379.523438 C 137.238281 378.144531 136.976562 386.578125 136.738281 531.671875 L 136.484375 684.546875 L 336.125 759.519531 C 445.828125 800.71875 544.472656 837.867188 555.394531 842.097656 L 575.257812 849.789062 L 574.660156 918.917969 C 574.191406 973.066406 573.375 987.621094 570.867188 986.628906 C 569.109375 985.929688 471.472656 945.734375 353.808594 897.265625 C 236.046875 848.757812 138.859375 809.03125 137.925781 809.019531 C 136.992188 809.011719 136.023438 924.046875 135.777344 1064.089844 C 135.527344 1203.523438 134.46875 1317.027344 133.417969 1316.875 C 132.371094 1316.726562 107.21875 1303.105469 77.523438 1286.601562 Z M 77.519531 1286.601562 " fill-opacity="1" fill-rule="nonzero"/><path fill="#e14761" d="M 774.113281 409.152344 C 716.582031 394.582031 669.125 382.242188 668.652344 381.734375 C 668.175781 381.226562 699.324219 344.171875 737.867188 299.394531 C 776.414062 254.621094 807.625 217.660156 807.230469 217.261719 C 806.835938 216.863281 663.824219 225.84375 489.425781 237.214844 L 172.335938 257.890625 L 103.882812 240.546875 L 35.429688 223.207031 L 431.4375 200.625 C 649.246094 188.203125 829.425781 177.972656 831.839844 177.886719 C 834.4375 177.796875 856.394531 151.675781 885.664062 113.851562 C 912.855469 78.714844 938.085938 46.519531 941.726562 42.304688 L 948.351562 34.644531 L 1022.46875 46.953125 C 1063.230469 53.722656 1096.917969 59.578125 1097.324219 59.964844 C 1097.734375 60.351562 1083.59375 83.445312 1065.90625 111.285156 C 1048.214844 139.125 1033.113281 163.554688 1032.347656 165.574219 C 1031.230469 168.507812 1033.421875 169.035156 1043.261719 168.21875 C 1050.03125 167.65625 1169.761719 160.191406 1309.328125 151.625 L 1563.082031 136.054688 L 1647.207031 149.71875 C 1693.476562 157.234375 1730.386719 163.703125 1729.230469 164.089844 C 1728.070312 164.476562 1565.179688 174.09375 1367.246094 185.457031 C 1169.3125 196.824219 1007.09375 206.429688 1006.761719 206.804688 C 1006.429688 207.179688 972.152344 256.867188 937.265625 319.472656 C 902.382812 382.074219 873.707031 431.570312 873.546875 431.710938 C 873.382812 431.851562 831.644531 423.722656 774.113281 409.152344 Z M 774.113281 409.152344 " fill-opacity="1" fill-rule="nonzero"/></svg>